<svg xmlns="http://www.w3.org/2000/svg" width="66" height="65" viewBox="0 0 66 65" fill="none"><path d="M63.8408 51.4534C61.1962 55.28 57.8947 58.4465 53.821 60.762C51.3188 62.1845 48.6098 62.907 45.7619 63.0878C42.6286 63.2866 39.4908 63.4239 36.3535 63.5453C33.195 63.6677 30.1005 63.1308 26.9995 62.6066C22.3986 61.829 18.3492 59.9412 14.784 56.9388C12.1931 54.7573 10.8175 51.9024 9.97528 48.7169C9.885 48.3752 9.77523 48.0386 9.66618 47.7022C9.65834 47.6784 9.58279 47.6767 9.46685 47.6451C8.9653 48.7547 9.47255 49.8374 9.61771 51.0616C8.36563 50.6601 7.56901 49.8545 6.90543 48.9077C5.94321 47.5342 5.50748 45.9761 5.30981 44.3187C5.09455 42.5133 4.76526 40.7217 4.51508 38.9198C4.25089 37.0163 3.50391 35.3441 2.23117 33.9037C2.05108 33.6998 1.89546 33.4729 1.74222 33.2474C1.69494 33.1781 1.69232 33.0783 1.63435 32.8618C3.7971 32.7583 5.93228 32.6559 8.10334 32.552C9.51341 33.9063 10.5346 35.7438 12.7118 36.4903C11.3393 38.5064 10.249 40.601 10.1501 43.0852C10.3074 42.8279 10.4813 42.5791 10.6194 42.3118C11.8743 39.8839 13.1504 37.4753 15.0615 35.4665C15.3359 35.1785 15.4371 34.6777 15.5094 34.2567C15.6474 33.4541 15.707 32.638 15.8178 31.6651C17.2475 31.7435 18.5897 31.4865 19.9967 31.7062C21.9204 32.0065 23.8762 32.1802 25.823 32.2356C30.1451 32.3589 34.4749 32.5295 38.7925 32.3928C43.5618 32.242 48.324 31.8086 53.0824 31.4123C54.4195 31.3009 55.6963 31.4012 56.9969 31.6468C57.6721 31.7744 58.022 32.0997 57.8728 32.7416C57.5977 33.9269 58.2523 34.6715 58.8997 35.5292C60.2964 37.3791 61.6887 39.2512 62.8633 41.2436C63.7075 42.6756 64.276 44.2895 64.8234 45.8718C65.5164 47.8749 64.98 49.8048 63.8408 51.4534ZM12.991 32.5406C12.8365 32.1137 12.6481 31.6958 12.5343 31.2584C11.9387 28.9707 11.345 26.682 10.7835 24.386C10.0594 21.4247 10.4447 18.5725 11.3471 15.668C13.3029 9.37291 17.9598 5.82647 23.6046 3.29047C28.2366 1.20969 33.1746 1.00228 38.1815 1.20138C42.0449 1.3551 45.775 2.14531 49.4065 3.31067C53.8469 4.73524 57.6091 7.30354 60.162 11.2769C61.889 13.965 62.6428 17.0572 62.549 20.2558C62.473 22.8405 62.1874 25.4237 61.8835 27.9947C61.7191 29.3826 61.3649 30.7542 61.0132 32.1115C60.783 32.9999 60.1078 33.395 59.0365 33.3869C59.1251 33.0101 59.1035 32.6528 59.2713 32.4629C60.1997 31.4135 60.4737 30.1125 60.6474 28.812C61.1622 24.9538 61.0009 21.1213 60.3518 17.2688C59.9144 14.6708 58.7709 12.5136 57.0149 10.6927C55.8602 9.49551 54.5112 8.42542 53.0919 7.55514C48.7467 4.89062 43.9712 3.55515 38.8857 3.22657C33.4376 2.87446 28.1278 3.5675 23.1264 5.70649C16.7144 8.4487 13.1433 13.4392 12.6662 20.4387C12.5222 22.5539 12.7954 24.7008 12.9235 26.8305C13.0382 28.7357 13.216 30.6373 13.3659 32.5404C13.6714 32.9547 13.9772 33.3691 14.3229 33.8374C13.4355 33.845 13.201 33.2061 12.991 32.5406ZM54.3917 28.5487C52.2651 27.6865 50.0239 27.3026 47.7628 27.0457C46.3176 26.8813 44.8584 26.8421 43.4084 26.7124C43.0769 26.6829 42.7125 26.5791 42.4431 26.3936C41.7816 25.9381 41.1667 25.4152 40.3794 24.7989C40.3264 24.48 40.238 23.949 40.1416 23.3691C41.4495 22.3425 42.1083 21.016 42.1071 19.3525C42.1052 16.3453 38.8189 14.0139 35.9814 15.0719C35.3095 15.3223 34.6417 15.6853 34.0921 16.1415C32.8377 17.1838 32.2901 18.5463 32.7804 20.1598C33.0152 20.9324 33.2727 21.8003 33.8018 22.357C34.6096 23.2066 34.7251 24.0448 34.4502 24.892C33.6391 25.3594 32.9524 25.7756 32.2447 26.151C32.023 26.2686 31.7458 26.3068 31.4896 26.3292C28.7282 26.5708 25.9515 26.6998 23.2091 27.0773C21.7921 27.2726 20.4153 27.8504 19.0582 28.357C18.1575 28.6932 17.4868 29.3133 17.7256 30.4563C17.1283 30.4563 16.5258 30.3546 15.9791 30.486C15.469 30.6086 15.0188 30.9785 14.4685 31.28C14.4398 31.1232 14.3687 30.8493 14.3419 30.5713C14.0793 27.8557 13.7132 25.1443 13.5913 22.4223C13.388 17.874 14.7508 13.8569 17.8672 10.4276C20.8866 7.10492 24.8059 5.69651 29.0266 4.93196C31.6177 4.46272 34.2456 4.1244 36.8717 3.93718C39.898 3.72122 42.8453 4.40143 45.7179 5.29689C48.7298 6.23583 51.5609 7.62357 54.1392 9.42447C57.0881 11.4841 58.9028 14.3356 59.6013 17.9217C60.2204 21.0997 60.071 24.261 59.7201 27.4337C59.5713 28.7801 59.3373 30.1172 59.1575 31.3503C57.8671 31.05 56.8804 30.8203 55.8959 30.5908C55.8232 29.1593 55.8027 29.1206 54.3917 28.5487ZM35.6602 24.5076C35.6291 24.2004 35.7448 23.8806 35.7724 23.5649C35.818 23.0446 35.7141 22.624 35.2461 22.2567C34.8317 21.9315 34.4915 21.4672 34.2297 21.0018C33.506 19.7157 33.3822 18.4043 34.3556 17.1714C35.2098 16.0897 37.0173 15.7887 38.45 16.0241C40.9156 16.4292 41.9486 20.2035 40.0662 21.9186C39.0881 22.8098 39.4067 23.9098 39.3395 24.9595C39.33 25.1066 39.4606 25.324 39.5915 25.409C41.0422 26.3539 42.2131 27.7226 44.2081 27.7623C46.3839 27.8058 48.5583 28.1277 50.7243 28.3993C51.7567 28.5285 52.7761 28.7941 53.7845 29.0612C54.0425 29.1296 54.2363 29.4389 54.4599 29.6376C54.2259 29.8766 54.0289 30.2558 53.7517 30.328C52.8757 30.5568 51.9757 30.7473 51.0743 30.8174C42.0351 31.5207 32.9883 31.8466 23.9294 31.2104C22.7063 31.1246 21.4787 31.0381 20.2701 30.8466C19.6833 30.7537 19.1347 30.4166 18.5688 30.1899C18.5692 30.0362 18.57 29.8823 18.5704 29.7286C19.0715 29.4532 19.555 29.136 20.0774 28.9098C22.4495 27.8825 24.9898 27.6205 27.5215 27.3415C28.4706 27.237 29.4255 27.1721 30.3799 27.127C31.0924 27.0933 31.8078 27.1203 32.6671 27.1203C33.1891 26.8207 33.865 26.3686 34.5944 26.0334C35.2815 25.7176 35.7446 25.346 35.6602 24.5076ZM65.8255 45.9925C65.4915 44.4997 64.9923 43.0051 64.3138 41.6364C63.0973 39.1819 61.4186 37.0156 59.6025 34.9638C59.4079 34.744 59.2207 34.5178 58.9315 34.1793C60.7433 34.1645 61.6885 33.265 62.1149 31.7445C62.3112 31.0455 62.544 30.351 62.669 29.6383C62.9441 28.0709 63.1627 26.4938 63.4005 24.9201C63.8049 22.2482 63.8536 19.5696 63.454 16.8958C63.1418 14.8077 62.4549 12.8001 61.3663 11.0232C59.5483 8.0555 56.9265 5.85617 53.8921 4.18332C50.8417 2.50169 47.5538 1.43326 44.1458 0.780376C37.9707 -0.402802 31.8016 -0.310852 25.7781 1.54184C17.6255 4.04956 11.871 9.06833 9.75242 17.6457C9.38892 19.1177 9.10144 20.6345 9.41125 22.1051C10.1326 25.5269 10.9819 28.9229 11.8529 32.3106C12.1544 33.4834 12.8258 34.4641 14.2445 34.8138C13.9033 35.1386 13.6541 35.3757 13.411 35.6069C11.8931 34.9391 10.8014 33.8407 9.69754 32.7564C9.00949 32.0802 8.27322 31.3795 7.25136 31.4349C4.8572 31.5649 2.46876 31.7953 0 31.9913C0.0472796 32.4515 -0.00879416 32.7613 0.115226 32.9557C0.531239 33.6057 0.985504 34.236 1.47327 34.8348C2.41197 35.9861 3.08101 37.2548 3.30577 38.735C3.59919 40.667 3.92159 42.5957 4.16654 44.5342C4.62793 48.1833 6.18483 51.0322 9.81348 52.3693C10.3281 52.5589 10.4483 52.9364 10.6866 53.3135C11.3635 54.384 11.9624 55.5394 12.8116 56.4584C15.095 58.9295 17.832 60.786 21.0078 61.9592C24.918 63.404 28.9548 64.2731 33.1192 64.4037C36.5766 64.5121 40.0392 64.4966 43.4991 64.4802C48.7614 64.4548 53.5283 62.9604 57.6666 59.6176C60.5217 57.3111 63.0714 54.7521 64.8897 51.518C65.8714 49.772 66.2553 47.9129 65.8255 45.9925Z" fill="#3D3D3D"></path><path d="M54.2155 33.6857C49.463 34.585 44.6431 34.7736 39.832 35.0238C33.6971 35.3431 27.5602 35.5218 21.4464 34.6714C20.283 34.5099 19.1257 34.3029 17.9656 34.1167C17.9361 34.2345 17.9067 34.3524 17.877 34.4702C18.6788 34.7149 19.4657 35.0789 20.2854 35.1818C22.899 35.5104 25.5199 35.8865 28.1473 35.9829C35.6104 36.2571 43.0573 35.8157 50.492 35.1813C51.7125 35.0772 52.9251 34.8651 54.1345 34.6619C54.5901 34.5852 55.1345 34.5398 55.2625 33.886C55.1121 33.7933 55.0071 33.6805 54.8909 33.6672C54.6688 33.642 54.435 33.6441 54.2155 33.6857Z" fill="#3D3D3D"></path><path d="M33.8398 27.5089C35.0751 28.3255 37.1596 28.4899 39.5464 28.0613C39.9527 27.9884 40.4761 28.019 40.5942 27.2264C38.3587 27.0252 36.2254 27.7489 33.8398 27.5089Z" fill="#3D3D3D"></path></svg>