<svg xmlns="http://www.w3.org/2000/svg" width="85" height="65" viewBox="0 0 85 65" fill="none"><path d="M65.2901 39.6613C64.1541 40.1662 63.0197 40.6743 61.5625 41.3247C62.8667 38.2401 64.5372 36.2906 67.4322 35.1391C69.9683 34.1306 72.2617 32.4165 74.5022 30.7932C75.9471 29.7469 77.174 28.3641 78.3694 27.0176C79.4921 25.7532 79.8919 24.1605 79.8367 22.4707C79.7793 20.7203 78.8787 19.5345 77.2252 18.9684C75.2933 18.307 73.4157 18.631 71.5552 19.2599C71.1043 19.4127 70.672 19.6206 70.0106 19.8945C70.1933 18.3426 70.3574 16.9504 70.5334 15.4543C73.9421 14.0921 77.3681 14.0618 80.4268 16.0204C82.6508 17.4449 83.5991 19.9602 83.5243 22.6266C83.4129 26.585 81.4312 29.5989 78.3571 31.9583C74.3167 35.0589 69.9415 37.5948 65.2901 39.6613ZM66.7297 30.5604C67.7411 30.9608 68.6682 31.3281 69.9314 31.8283C68.1974 32.8194 66.7922 33.6225 65.0298 34.6301C65.6717 33.0937 66.168 31.905 66.7297 30.5604ZM69.826 21.2634C71.3507 20.4603 73.0005 19.9302 74.7903 19.9494C75.3283 19.9551 75.8796 19.9823 76.4012 20.1018C77.8509 20.4335 78.436 21.2407 78.317 22.703C78.2116 23.9971 77.7556 25.1514 76.9418 26.1829C75.2659 28.307 73.0961 29.8087 70.8847 31.1946C69.5678 30.7062 68.3331 30.2476 67.1396 29.8046C68.0453 26.9248 68.9288 24.1154 69.826 21.2634ZM66.4293 14.0277C64.8818 14.8197 63.3968 15.7847 61.7752 16.3732C55.9506 18.4865 49.9395 19.8046 43.7332 20.0848C40.1112 20.2483 36.4772 20.5329 32.8635 20.3884C26.664 20.1403 20.6426 18.7964 14.8742 16.49C12.3908 15.4972 10.0471 14.2063 8.75301 11.6515C8.71546 11.4303 8.6779 11.2091 8.64067 10.9879C8.30775 10.8636 7.97516 10.7393 7.52581 10.5711C7.68927 9.35081 8.48762 8.52279 9.54537 7.87716C13.1796 5.65879 17.091 4.08101 21.2166 3.09584C29.9162 1.01884 38.7007 0.337547 47.624 1.45399C52.4419 2.05702 57.1642 2.94532 61.6284 4.86737C63.3286 5.59915 65.0314 6.4824 66.4706 7.62598C68.648 9.35618 68.5199 12.0886 66.4293 14.0277ZM84.2987 26.7686C86.4757 20.9535 83.6291 13.2063 75.1314 13.4758C73.5959 13.5247 72.0705 13.8879 70.6508 14.0899C70.1822 12.7061 69.6821 11.2905 69.2236 9.86139C68.5508 7.76419 67.1033 6.37511 65.18 5.44863C63.6606 4.71685 62.1352 3.97813 60.5571 3.39056C54.7808 1.23846 48.7483 0.427483 42.6309 0.0983582C36.8676 -0.212151 31.1569 0.223 25.4842 1.25803C19.6199 2.3284 14.0143 4.06459 8.90132 7.25299C6.88869 8.50827 5.9963 10.2246 5.94833 12.489C5.8726 16.0798 6.44597 19.596 7.32637 23.0574C8.08434 26.0387 8.96822 28.9883 9.79656 31.9517C10.4154 33.5159 10.9947 35.0974 11.6643 36.6396C12.3109 38.1293 13.0774 39.567 13.7385 41.0511C14.0695 41.7945 14.2825 42.5904 14.6574 43.6752C13.0733 42.7052 11.8325 41.9192 10.5646 41.1789C9.88743 40.7832 9.20836 40.5061 8.3371 40.7803C7.82653 40.9409 7.18942 40.6781 6.6069 40.6336C5.41536 40.5424 4.21024 40.3294 3.03227 40.4259C1.65392 40.5389 1.53905 40.9188 2.05751 42.3174C1.45921 42.797 0.601844 43.1612 0.37275 43.7642C0.170162 44.2981 0.66622 45.0978 0.885848 45.8968C0.649811 46.1476 0.105474 46.4698 0.019327 46.8867C-0.0769179 47.3537 0.208348 47.9185 0.388846 48.4184C0.573132 48.928 0.778874 49.4449 1.07076 49.8968C1.59364 50.7055 2.11589 51.5361 2.77194 52.2322C3.53022 53.0369 2.47815 54.1271 3.31533 54.8554C4.95749 56.6532 6.99535 57.7444 9.3655 58.241C12.1651 58.4026 14.7458 57.8438 16.9199 55.9457C17.0193 55.4522 17.1191 54.9586 17.2447 54.3354C15.9891 54.2817 15.2548 54.9605 14.4359 55.3988C11.4299 57.0075 8.55295 56.7955 5.58071 54.7901C5.91741 54.6207 6.10769 54.5459 6.27588 54.4364C7.34341 53.7421 7.32542 53.2634 6.21687 52.7027C4.11842 51.6408 3.19857 50.6431 2.12283 48.2076C2.43965 48.1003 2.75963 48.0205 3.05436 47.886C3.78329 47.5547 3.81611 46.9905 3.44155 46.3938C3.05814 45.7841 2.60248 45.2199 2.14208 44.5853C3.01365 43.8415 4.72713 43.7541 4.00513 41.9267C5.60185 41.8052 6.92909 42.3486 8.22003 43.0003C8.87166 43.3291 9.45638 43.7226 10.2469 43.2896C10.4703 43.1672 10.9553 43.3199 11.2131 43.4998C12.001 44.0489 12.7663 44.639 13.4857 45.2751C14.659 46.3117 14.6984 46.3398 16.1582 45.6052C17.5094 48.0085 16.4558 50.9372 17.7805 53.6935C18.7802 51.9712 19.4482 50.4136 20.4801 49.1543C21.5814 47.8103 23.369 47.4966 25.1355 46.9482C25.3867 48.2884 26.4192 48.3155 27.4649 48.3288C29.3949 48.3531 31.2822 48.5894 33.2037 49.4452C32.8048 49.8655 32.5053 50.1811 32.1099 50.5982C33.5811 51.5197 34.9376 52.3692 36.3274 53.2398C34.4517 55.0072 34.4517 55.0072 35.3087 56.4465C34.1734 57.3862 31.9938 55.8128 31.3447 58.1896C30.6811 58.1587 29.9673 58.1284 29.2541 58.0908C28.5208 58.052 27.8423 57.994 27.4088 58.8554C27.2778 59.1155 26.5817 59.218 26.1614 59.1839C24.1434 59.0211 22.2709 58.3594 20.5334 57.3297C19.8471 56.9233 19.1885 56.4843 18.3418 56.8469C18.1446 58.064 18.8215 58.7841 19.7931 59.2814C22.2986 60.5635 24.9518 61.2382 27.7821 61.0747C28.1891 61.0511 28.7543 61.0132 28.96 60.7545C29.6375 59.9018 30.5299 60.0959 31.4037 59.9908C32.1528 59.9012 33.286 59.7986 33.5258 59.331C34.0541 58.3004 34.8502 58.2896 35.7158 58.1183C36.2396 58.0148 36.7638 57.8302 37.2409 57.5894C37.9632 57.2253 38.062 56.756 37.5056 56.17C37.1964 55.8441 36.7246 55.6724 36.2642 55.3935C36.8572 54.8908 37.0844 54.6983 37.3116 54.5058C38.0957 54.5512 38.8824 54.6648 39.6631 54.6301C43.1292 54.4761 46.4735 53.6554 49.7562 52.6001C50.5378 52.349 51.2295 51.7911 51.9254 51.3193C52.1178 51.189 52.1753 50.8605 52.4892 50.2366C47.5801 52.2325 42.7594 52.9271 37.9925 53.8557C37.9398 53.5986 37.8875 53.342 37.8351 53.0852C37.7758 53.0012 37.7161 52.9176 37.6565 52.8337C37.6568 52.834 37.5915 52.7627 37.5915 52.7627C37.4946 52.6734 37.3977 52.5837 37.3012 52.4944C37.3015 52.4947 37.2747 52.4073 37.2747 52.4073L37.1835 52.414C36.9891 52.2808 36.7947 52.1479 36.6006 52.0151C36.1462 51.6497 35.6912 51.284 35.233 50.9154C36.4627 49.5572 36.3753 49.082 34.8177 48.3928C34.3769 48.1981 33.9228 48.0063 33.4545 47.9056C31.6423 47.5165 29.8221 47.1644 28.0055 46.7989C28.3441 45.5304 28.1633 45.188 26.9891 45.3221C24.3119 45.6276 21.7925 46.4146 19.6293 48.1076C19.3289 48.3426 19.0354 48.5869 18.6397 48.9072C18.4201 47.7645 18.3368 46.7958 18.0395 45.898C17.4599 44.1479 17.1247 42.2388 15.2472 41.2142C14.9057 41.028 14.7451 40.4341 14.5902 39.9968C13.9038 38.0621 13.2418 36.1183 12.5858 34.1729C11.1979 30.0561 9.69273 25.9731 8.48005 21.8049C7.62962 18.8816 7.24906 15.8327 7.30523 12.7036C9.2538 15.4792 12.0156 17.0517 15.044 18.1517C20.179 20.0173 25.4924 21.2066 30.9496 21.4991C38.3977 21.898 45.8253 21.5364 53.1497 20.0422C57.6499 19.1242 62.1062 17.9696 66.1276 15.6332C66.9866 15.1347 67.6701 14.3303 68.4189 13.6496C68.6464 13.4433 68.8215 13.1798 69.1854 12.7462C69.1854 14.01 69.3154 14.9873 69.1586 15.9157C68.8168 17.9387 68.4615 19.9759 67.8783 21.9381C65.2447 30.8002 61.802 39.2707 55.6256 46.366C55.2573 46.7888 54.7082 47.2294 55.2586 48.1331C55.861 47.7832 56.5205 47.5115 57.0364 47.0719C57.6748 46.5272 58.2633 45.8923 58.748 45.2073C59.4044 44.2792 60.2747 43.7746 61.2882 43.2963C65.3807 41.3654 69.4299 39.3423 73.4725 37.3089C74.4874 36.7986 75.4195 36.1233 76.6032 35.3919C77.9191 36.4995 79.3621 37.513 80.5366 38.7759C81.2842 39.5787 81.8935 40.6983 82.1144 41.7683C82.9825 45.976 82.1769 49.7677 78.5073 52.4168C76.8092 53.6427 74.9415 54.7175 73.0071 55.5121C69.9979 56.7478 66.9074 57.8305 63.7786 58.7229C55.4432 61.1009 46.9787 62.7687 38.2605 62.8125C31.0415 62.8491 23.9136 61.9185 16.801 60.822C17.404 61.1783 17.9673 61.6525 18.6167 61.8712C22.6432 63.2259 26.8035 63.9719 31.0288 64.2843C39.2762 64.8943 47.4413 64.2985 55.5255 62.5064C61.6038 61.159 67.594 59.5471 73.3615 57.1669C75.8345 56.1461 78.1409 54.8791 80.2056 53.153C84.6004 49.4799 85.9721 40.3196 79.3422 36.2458C78.6956 35.8485 78.0787 35.4029 77.3053 34.8838C78.0977 34.2694 78.7076 33.7923 79.3217 33.3205C81.5761 31.5884 83.2952 29.4493 84.2987 26.7686Z" fill="#3D3D3D"></path><path d="M9.62863 11.4302C14.2162 9.2806 19.1455 8.42891 24.0859 7.6255C24.4074 7.57312 24.7565 7.69083 25.0928 7.72932C24.5715 8.36675 23.7262 8.88647 24.2961 9.92087C24.5031 9.92276 24.7097 9.92465 24.9164 9.92686C24.9587 9.58985 25.001 9.25315 25.0581 8.79875C25.5741 8.91897 25.9666 8.99786 26.3529 9.102C30.4557 10.2093 34.5529 11.3387 38.6653 12.4106C39.2683 12.5678 39.9411 12.4561 40.5813 12.469C40.5813 12.4646 40.581 12.4608 40.5813 12.4561C41.3052 12.8161 42.0001 13.2667 42.7609 13.5125C45.8994 14.5255 49.0588 15.474 52.2103 16.4466C53.0481 16.5681 53.8859 16.6899 54.8676 16.8325C54.6918 15.6646 53.9215 15.6091 53.3472 15.4542C50.091 14.5763 46.8253 13.7306 43.5504 12.9231C42.5807 12.6842 41.5722 12.6003 40.5813 12.4475C40.6097 11.6362 40.0048 11.5214 39.404 11.3791C37.8177 11.0035 36.2371 10.6037 34.6495 10.2336C31.9168 9.59648 29.1806 8.97451 26.4459 8.34655C26.847 7.89499 27.2604 7.72112 27.6902 7.61572C34.0704 6.05466 40.5555 5.44974 47.1067 5.66274C49.7 5.74699 52.3229 6.01427 54.7218 7.09852C55.9038 7.63308 57.0493 8.39799 57.9837 9.29575C59.2743 10.5356 59.5075 12.1351 58.7095 13.7969C58.3961 14.4494 58.0197 15.0714 57.6877 15.7154C57.4974 16.0846 57.4962 16.4135 57.9872 16.5523C58.7742 15.7565 59.7164 15.0613 60.3134 14.1421C61.3097 12.6094 60.5675 10.9562 60.043 9.24526C62.8947 9.75867 65.2869 10.504 66.3188 13.3223C66.9831 12.1885 66.9755 11.6915 66.1954 10.8016C65.2415 9.71386 63.9831 9.07707 62.5975 8.86249C60.5627 8.54756 58.6227 8.16542 57.0465 6.66085C56.552 6.18877 55.7868 5.90793 55.0976 5.74952C52.9887 5.26514 50.8739 4.729 48.7306 4.49202C43.7145 3.93727 38.7189 4.48255 33.7688 5.26798C31.2856 5.66211 28.8634 6.44027 26.4138 7.04488C25.3522 6.95116 24.2768 6.70408 23.232 6.79875C21.499 6.95526 19.7763 7.28533 18.0657 7.62519C14.7628 8.28123 11.6312 9.44343 8.64062 10.9881C8.67786 11.209 8.71541 11.4302 8.75328 11.6517C9.04612 11.5804 9.36104 11.5555 9.62863 11.4302Z" fill="#3D3D3D"></path><path d="M38.4837 9.11755C39.266 8.50916 40.0319 7.89572 39.8605 6.53914C38.8403 7.24819 38.4263 8.05223 38.4837 9.11755Z" fill="#3D3D3D"></path><path d="M35.7566 8.58398C35.9608 7.94593 36.1116 7.47512 36.2628 7.00462C35.4234 7.61365 35.4234 7.61365 35.7566 8.58398Z" fill="#3D3D3D"></path></svg>