<svg xmlns="http://www.w3.org/2000/svg" width="73" height="66" viewBox="0 0 73 66" fill="none"><path d="M64.7733 48.1758C65.7998 48.2984 66.8288 48.4034 67.8502 48.558C68.0707 48.5914 68.2639 48.8041 68.4697 48.9341C68.5938 51.5123 68.3448 54.052 67.8074 56.579C67.3912 58.5374 67.1058 60.5238 66.7525 62.496C66.6616 63.0027 66.5039 63.4609 65.7126 63.1337C65.9537 61.7786 66.229 60.417 66.4331 59.0446C66.8582 56.1907 67.263 53.3334 67.6314 50.4717C67.6948 49.9801 67.5373 49.4601 67.4817 48.9534C66.2977 48.7533 65.1135 48.5534 63.9293 48.3534C62.9143 48.1982 61.8996 48.0433 60.8849 47.8883L60.9015 47.7322C62.1922 47.8801 63.4826 48.0279 64.7733 48.1758ZM64.3678 64.2365C58.1093 63.5926 51.9792 62.1385 45.6447 61.0052C45.626 60.5778 45.5592 60.112 45.5943 59.6544C45.7045 58.2134 45.8547 56.776 45.9866 55.3368C46.1806 53.2171 46.3839 51.0984 46.555 48.9767C46.5922 48.5187 46.789 48.2877 47.1775 48.0577C47.7121 47.7411 48.1723 47.299 48.9005 46.7242C54.7787 47.6123 60.8467 48.529 66.8779 49.4402C67.0999 50.9469 65.2827 61.5274 64.3678 64.2365ZM36.2526 13.0379C37.1661 13.4558 38.0897 13.8563 39.0269 14.2169C39.9074 14.5554 40.5494 15.1447 40.9052 15.9878C41.8096 18.1332 42.7267 20.2769 43.5237 22.4632C44.236 24.4166 44.1585 26.4261 43.4514 28.3806C42.3304 31.4786 41.1765 34.5645 40.025 37.6513C37.7499 43.7517 35.4621 49.8474 33.1912 55.9494C32.5631 57.6372 31.9761 59.3405 31.3066 61.2158C22.6752 57.7991 14.2266 54.4668 5.79084 51.1019C4.48673 50.5818 3.23449 49.9282 1.9728 49.307C0.950097 48.8035 0.902007 48.6964 1.2966 47.635C2.61394 44.0938 3.89368 40.537 5.2946 37.0285C7.82911 30.6816 10.581 24.4179 12.9674 18.0169C14.3864 14.2102 17.2082 12.0915 20.551 10.343C20.9067 10.1569 21.3076 10.0498 21.6455 9.83856C23.1716 8.88305 24.7382 8.96495 26.3907 9.48681C29.7262 10.5402 33.0635 11.5786 36.2526 13.0379ZM67.8238 40.0294C69.1783 36.4182 70.4567 32.7781 71.7237 29.135C72.4402 27.0751 72.9301 24.9654 72.7714 22.7505C72.5927 20.2569 72.2928 17.7779 71.5807 15.3801C70.3255 11.1538 67.761 8.03633 63.4902 6.6394C61.0911 5.85463 58.6095 5.29498 56.1355 4.77564C54.4309 4.4178 52.7803 3.95349 51.2122 3.21344C49.8327 2.56223 48.4894 1.835 47.1105 1.18315C45.5796 0.459488 44.0359 -0.188789 42.2559 0.0510254C41.1714 0.196983 40.481 0.687126 40.1471 1.73125C39.6212 3.37619 38.979 4.98942 38.5496 6.65809C38.2075 7.9874 37.4586 8.76923 36.1824 9.10355C35.1845 9.36522 34.4052 9.85326 34.1524 10.9381C31.479 10.1017 28.9179 9.28122 26.3441 8.50232C24.6229 7.98131 22.9391 8.00462 21.3477 8.99457C20.9418 9.24699 20.4664 9.38412 20.0365 9.60147C16.2571 11.5137 13.3547 14.1045 11.8868 18.3258C10.1736 23.2522 7.95616 28.0016 6.03213 32.8572C4.1081 37.7127 2.25421 42.5962 0.415014 47.4847C-0.28555 49.3469 -0.228221 49.5343 1.60068 50.3358C6.34461 52.4146 11.0908 54.4939 15.8967 56.4229C19.9947 58.0681 24.1754 59.5072 28.3215 61.0316C29.1499 61.3361 29.979 61.6461 30.8249 61.8958C31.9129 62.2167 32.061 62.1396 32.4614 61.1165C32.8713 60.0688 33.247 59.0078 33.6297 57.9496C35.5564 52.6228 37.4622 47.2879 39.4114 41.969C41.0566 37.4808 42.7639 33.0158 44.417 28.5306C45.0103 26.9215 45.3045 25.2144 44.9303 23.5462C44.2948 20.7128 43.2523 18.0055 41.7025 15.5288C40.9667 14.3525 40.0038 13.4304 38.6371 12.9449C37.3626 12.4919 36.1346 11.9073 34.8964 11.3854C35.2744 10.2203 35.2937 10.1389 36.3238 9.86397C38.046 9.4047 39.0754 8.3801 39.4824 6.61084C39.8056 5.20635 40.3033 3.83862 40.7735 2.47171C41.3304 0.852394 41.8224 0.544327 43.5392 0.695107C44.0138 0.7369 44.5025 0.840843 44.9405 1.0225C45.8278 1.39063 46.6953 1.81105 47.5527 2.24617C50.0614 3.51962 52.5651 4.78845 55.3409 5.41993C57.8069 5.98084 60.2666 6.5764 62.7092 7.23161C64.3602 7.67471 65.7996 8.52879 67.0675 9.70794C69.1804 11.6729 70.3404 14.0949 71.0021 16.8776C72.1111 21.5405 72.1949 26.0746 70.2732 30.5877C69.2056 33.0958 68.4061 35.721 67.5442 38.3128C66.4436 41.6231 65.0463 44.7532 62.4635 47.2667C62.3526 47.2667 62.1926 47.2782 62.0346 47.265C58.0656 46.9338 54.0945 46.6243 50.1297 46.2498C49.15 46.1574 48.3031 46.2158 47.5868 46.9695C47.4043 47.1615 47.1113 47.2971 46.8465 47.3532C46.0693 47.5176 45.8515 48.0506 45.778 48.7497C45.6516 49.949 45.4708 51.1427 45.3461 52.3422C45.0806 54.9006 44.8257 57.4601 44.5882 60.0213C44.493 61.0472 45.0901 61.733 46.1298 61.883C46.7648 61.9745 47.4018 62.0585 48.0322 62.1768C53.2831 63.1636 58.5304 64.1695 63.7842 65.1405C65.078 65.3795 65.0887 65.3301 65.6137 64.1743C65.7588 64.1743 65.9174 64.1829 66.0747 64.1728C67.0804 64.1088 67.1402 64.0617 67.4048 63.123C67.4594 62.9298 67.5092 62.7341 67.5428 62.5361C68.0153 59.7223 68.5592 56.9175 68.9292 54.09C69.1825 52.1561 69.1921 50.1903 69.3196 48.0937C67.3674 47.841 65.557 47.6071 63.6315 47.3578C63.8339 47.0401 63.9421 46.786 64.1218 46.6022C65.9432 44.7408 66.9346 42.4012 67.8238 40.0294Z" fill="#3D3D3D"></path><path d="M24.5793 10.2784L24.332 10.3994C24.5016 11.8864 25.2688 13.2144 25.6844 14.596C24.9865 15.2386 24.9311 15.2659 24.0466 15.0057C23.2011 14.7573 22.3733 14.3682 21.5112 14.9705C21.4069 15.0433 21.2038 14.9835 21.0475 14.9728C20.007 14.9014 18.9673 14.8125 17.9257 14.7598C17.5414 14.7405 17.0903 14.6901 16.9668 15.4129C17.3891 15.5402 17.82 15.7361 18.2684 15.7914C19.2606 15.9132 20.2611 15.9711 21.259 16.0381C21.4526 16.0511 21.7166 16.0568 21.8367 15.9455C22.4403 15.3879 23.0495 15.6822 23.644 15.9001C24.531 16.2254 25.366 16.2555 26.012 15.6878C26.6006 15.8623 27.0922 16.1469 27.5643 16.1173C28.3703 16.0669 29.0379 16.1549 29.6307 16.766C29.8206 16.9617 30.2317 17.0465 30.5255 17.0173C31.2719 16.9438 31.8187 17.2897 32.4065 17.6623C32.9668 18.0174 33.6037 18.2515 34.4068 18.6341C34.5311 18.7986 34.7499 19.2711 35.1176 19.5386C36.016 20.1924 36.991 20.7398 37.9207 21.3518C38.5856 21.7894 39.2303 22.2581 39.8779 22.7214C40.0728 22.8611 40.2263 23.0795 40.4382 23.1689C40.6308 23.2502 40.8765 23.2052 41.0989 23.2157C41.0672 22.9679 41.1285 22.6126 40.9878 22.491C40.3828 21.9688 39.7475 21.4681 39.069 21.0473C37.9505 20.3536 36.7813 19.7421 35.6498 19.0688C34.731 18.5218 34.7274 17.5159 35.6433 16.9863C36.0929 16.7261 36.5881 16.5438 37.0635 16.329C37.5763 16.0975 38.1101 15.9037 38.5942 15.6234C38.7956 15.5066 38.8922 15.2088 39.0365 14.9934C38.7639 14.8926 38.4953 14.7279 38.2177 14.7111C37.9993 14.6979 37.7613 14.8497 37.5471 14.9579C36.2254 15.6246 34.8205 16.1631 33.8162 17.4411C33.3351 17.1604 32.9011 16.8829 32.4452 16.6484C32.0926 16.4671 31.7114 16.2107 31.3452 16.2143C30.5383 16.2221 29.8768 16.044 29.2735 15.4703C29.0633 15.2703 28.5973 15.2727 28.2542 15.2916C27.0483 15.3577 27.0319 15.3827 26.5237 14.2751C26.0044 13.1435 25.5302 11.991 25.0164 10.8567C24.9189 10.6421 24.7274 10.4701 24.5793 10.2784Z" fill="#3D3D3D"></path></svg>